<?xml version="1.0" standalone="no"?>
<!DOCTYPE svg PUBLIC "-//W3C//DTD SVG 20010904//EN"
 "http://www.w3.org/TR/2001/REC-SVG-20010904/DTD/svg10.dtd">
<svg version="1.0" xmlns="http://www.w3.org/2000/svg"
 width="512.000000pt" height="512.000000pt" viewBox="0 0 512.000000 512.000000"
 preserveAspectRatio="xMidYMid meet">

<g transform="translate(0.000000,512.000000) scale(0.100000,-0.100000)"
fill="#000000" stroke="none">
<path d="M114 4795 c-54 -27 -84 -60 -102 -114 -9 -26 -12 -516 -12 -1973 0
-1727 2 -1943 15 -1976 20 -47 50 -79 97 -103 34 -17 61 -19 291 -19 l253 0
13 -48 c48 -181 246 -295 431 -248 85 22 142 62 270 191 l105 105 1748 0
c1698 0 1749 1 1785 19 47 24 77 56 97 103 13 33 15 249 15 1982 l0 1944 -28
53 c-23 43 -38 59 -82 82 l-54 28 -249 -3 -249 -3 -29 -33 c-32 -36 -36 -69
-15 -111 25 -47 49 -51 286 -51 l220 0 0 -340 0 -340 -2360 0 -2360 0 0 340 0
340 1721 0 1721 0 29 29 c31 31 39 83 19 122 -28 52 67 49 -1798 49 l-1728 0
-50 -25z m4806 -2520 l0 -1465 -1622 0 -1623 0 182 182 181 181 59 -28 c195
-93 438 -136 647 -115 308 31 568 152 781 365 241 241 368 547 366 889 0 219
-43 395 -141 585 -178 345 -522 594 -904 656 -120 20 -309 19 -426 -1 -524
-90 -935 -502 -1026 -1028 -12 -68 -15 -132 -11 -256 5 -188 29 -299 92 -443
20 -45 39 -90 42 -100 4 -14 -90 -115 -404 -430 -226 -227 -414 -422 -418
-434 l-6 -23 -245 0 -244 0 0 1465 0 1465 2360 0 2360 0 0 -1465z m-2093 1050
c432 -82 767 -415 849 -845 21 -107 18 -304 -5 -415 -85 -408 -401 -725 -813
-816 -128 -29 -318 -29 -445 -1 -104 24 -216 66 -308 117 -65 37 -93 42 -128
24 -12 -6 -218 -206 -457 -444 -385 -384 -439 -434 -473 -441 -117 -21 -216
86 -187 198 10 38 64 96 451 483 395 397 439 444 439 473 0 18 -21 73 -50 129
-97 192 -125 320 -117 537 4 123 10 168 31 241 116 396 425 680 822 759 95 19
294 19 391 1z"/>
<path d="M2465 3106 c-281 -66 -492 -240 -601 -496 -44 -100 -64 -208 -64
-332 0 -370 237 -686 600 -800 66 -20 95 -23 235 -23 140 0 169 3 235 23 238
75 421 233 525 455 52 108 67 177 72 322 4 109 2 144 -16 220 -70 294 -295
530 -586 616 -92 27 -312 35 -400 15z m365 -215 c186 -59 336 -207 408 -399
33 -89 42 -255 18 -356 -35 -149 -137 -296 -267 -382 -106 -70 -191 -97 -324
-102 -198 -7 -347 50 -481 185 -121 120 -184 274 -184 448 0 291 191 539 474
616 94 25 261 21 356 -10z"/>
<path d="M2364 2601 c-33 -14 -54 -51 -54 -95 0 -36 7 -47 95 -135 l94 -96
-94 -96 c-90 -91 -95 -99 -95 -138 0 -57 41 -101 96 -101 33 0 46 9 135 97
l99 97 99 -97 c86 -85 102 -97 133 -97 41 0 85 30 99 68 16 42 -6 83 -96 172
-47 47 -85 89 -85 95 0 5 41 51 92 102 81 81 92 97 92 128 0 65 -61 115 -122
100 -14 -3 -68 -48 -119 -98 l-93 -91 -93 92 c-97 97 -132 114 -183 93z"/>
<path d="M4020 4813 c-28 -10 -59 -46 -65 -75 -21 -94 97 -157 166 -89 73 73
-5 199 -101 164z"/>
<path d="M623 4562 c-138 -50 -211 -162 -201 -310 6 -84 32 -136 98 -195 66
-59 130 -81 220 -75 251 18 367 320 192 501 -81 84 -206 116 -309 79z m131
-192 c37 -14 68 -68 61 -105 -7 -43 -57 -85 -101 -85 -96 0 -131 138 -46 184
32 18 52 19 86 6z"/>
<path d="M1400 4567 c-265 -75 -294 -441 -45 -559 118 -55 242 -33 336 61 68
69 94 139 87 235 -15 185 -199 314 -378 263z m153 -227 c38 -42 37 -92 -2
-131 -85 -85 -224 31 -150 125 43 54 105 57 152 6z"/>
<path d="M2165 4567 c-65 -22 -99 -43 -139 -88 -56 -61 -77 -116 -77 -199 -1
-117 60 -217 164 -272 57 -31 203 -33 257 -4 70 38 109 77 141 142 96 194 -33
415 -250 430 -31 2 -74 -2 -96 -9z m125 -202 c36 -19 52 -47 52 -93 0 -48 -47
-92 -98 -92 -96 0 -131 138 -46 184 35 19 56 20 92 1z"/>
</g>
</svg>
